<svg id="Layer_1" data-name="Layer 1" xmlns="http://www.w3.org/2000/svg" xmlns:xlink="http://www.w3.org/1999/xlink" viewBox="0 0 321.54 109.16"><defs><style>.cls-1{fill:url(#New_Gradient_Swatch_1);}.cls-2{fill:url(#New_Gradient_Swatch_1-2);}.cls-3{fill:url(#New_Gradient_Swatch_1-3);}.cls-4{fill:url(#New_Gradient_Swatch_1-4);}.cls-5{fill:url(#New_Gradient_Swatch_1-8);}.cls-6{fill:url(#New_Gradient_Swatch_1-9);}.cls-7{fill:url(#New_Gradient_Swatch_1-10);}.cls-8{fill:url(#New_Gradient_Swatch_1-14);}.cls-9{fill:url(#New_Gradient_Swatch_1-18);}.cls-10{fill:#010101;}.cls-11{fill:#231f20;}.cls-12{fill:#002f87;}.cls-13{fill:none;}</style><linearGradient id="New_Gradient_Swatch_1" x1="14.53" y1="54.58" x2="92.45" y2="54.58" gradientUnits="userSpaceOnUse"><stop offset="0" stop-color="#878ec2"/><stop offset="1" stop-color="#002f87"/></linearGradient><linearGradient id="New_Gradient_Swatch_1-2" x1="14.53" y1="44.66" x2="92.45" y2="44.66" xlink:href="#New_Gradient_Swatch_1"/><linearGradient id="New_Gradient_Swatch_1-3" x1="14.53" y1="34.73" x2="92.45" y2="34.73" xlink:href="#New_Gradient_Swatch_1"/><linearGradient id="New_Gradient_Swatch_1-4" x1="14.53" y1="14.89" x2="92.45" y2="14.89" xlink:href="#New_Gradient_Swatch_1"/><linearGradient id="New_Gradient_Swatch_1-8" x1="14.53" y1="24.81" x2="92.45" y2="24.81" xlink:href="#New_Gradient_Swatch_1"/><linearGradient id="New_Gradient_Swatch_1-9" x1="14.53" y1="74.43" x2="92.45" y2="74.43" xlink:href="#New_Gradient_Swatch_1"/><linearGradient id="New_Gradient_Swatch_1-10" x1="14.53" y1="64.5" x2="92.45" y2="64.5" xlink:href="#New_Gradient_Swatch_1"/><linearGradient id="New_Gradient_Swatch_1-14" x1="14.53" y1="84.35" x2="92.45" y2="84.35" xlink:href="#New_Gradient_Swatch_1"/><linearGradient id="New_Gradient_Swatch_1-18" x1="14.53" y1="94.27" x2="92.45" y2="94.27" xlink:href="#New_Gradient_Swatch_1"/></defs><rect class="cls-1" x="9.92" y="49.62" width="9.92" height="9.92"/><path class="cls-2" d="M21,39.69h7.67a1.12,1.12,0,0,1,1.12,1.12v7.67a1.13,1.13,0,0,1-1.12,1.13H21a1.12,1.12,0,0,1-1.12-1.12V40.82A1.13,1.13,0,0,1,21,39.69Z"/><rect class="cls-3" x="29.77" y="29.77" width="9.92" height="9.92" rx="2.25"/><rect class="cls-4" x="49.62" y="9.92" width="9.92" height="9.92" rx="4.5"/><rect class="cls-1" x="29.77" y="49.62" width="9.92" height="9.92" rx="2.25"/><path class="cls-2" d="M43.07,39.69h3.17a3.38,3.38,0,0,1,3.38,3.38v3.17a3.37,3.37,0,0,1-3.37,3.37H43.07a3.37,3.37,0,0,1-3.37-3.37V43.07A3.37,3.37,0,0,1,43.07,39.69Z"/><rect class="cls-3" x="49.62" y="29.77" width="9.92" height="9.92" rx="4.5"/><rect class="cls-5" x="59.54" y="19.85" width="9.92" height="9.92" rx="4.96"/><rect class="cls-6" x="29.77" y="69.47" width="9.92" height="9.92" rx="2.25"/><path class="cls-7" d="M43.07,59.54h3.17a3.38,3.38,0,0,1,3.38,3.38v3.17a3.37,3.37,0,0,1-3.37,3.37H43.07a3.37,3.37,0,0,1-3.37-3.37V62.92A3.37,3.37,0,0,1,43.07,59.54Z"/><rect class="cls-1" x="49.62" y="49.62" width="9.92" height="9.92" rx="4.5"/><rect class="cls-2" x="59.54" y="39.69" width="9.92" height="9.92" rx="4.96"/><rect class="cls-3" x="69.47" y="29.77" width="9.92" height="9.92" rx="4.96"/><path class="cls-8" d="M43.07,79.39h3.17a3.38,3.38,0,0,1,3.38,3.38v3.17a3.37,3.37,0,0,1-3.37,3.37H43.07a3.37,3.37,0,0,1-3.37-3.37V82.76A3.37,3.37,0,0,1,43.07,79.39Z"/><rect class="cls-7" x="59.54" y="59.54" width="9.92" height="9.92" rx="4.96"/><rect class="cls-1" x="69.47" y="49.62" width="9.92" height="9.92" rx="4.96"/><rect class="cls-2" x="79.39" y="39.69" width="9.92" height="9.92" rx="4.96"/><rect class="cls-9" x="49.62" y="89.31" width="9.92" height="9.92" rx="4.5"/><rect class="cls-8" x="59.54" y="79.39" width="9.92" height="9.92" rx="4.96"/><rect class="cls-6" x="69.47" y="69.47" width="9.92" height="9.92" rx="4.96"/><rect class="cls-7" x="79.39" y="59.54" width="9.92" height="9.92" rx="4.96"/><rect class="cls-1" x="89.31" y="49.62" width="9.92" height="9.92" rx="4.96"/><rect class="cls-10" x="118.7" y="24.81" width="0.94" height="59.54"/><path class="cls-11" d="M314.41,410.92h-.05l-12,11.53h-.09l-12-11.53h0v13.36h-1.39V409.09h1.23l12.2,11.75h.05l12.2-11.75h1.23v15.19h-1.38Z" transform="translate(-145.44 -341.21)"/><path class="cls-11" d="M348.74,424.28h-1.39V409.09h1.39Z" transform="translate(-145.44 -341.21)"/><path class="cls-11" d="M378.4,410.27v-1.18H403v1.18H391.39v14H390v-14Z" transform="translate(-145.44 -341.21)"/><path class="cls-11" d="M444.37,417c-5.79,0-9.07-.16-10.75-.71a2.8,2.8,0,0,1-2.08-2.91,3.4,3.4,0,0,1,2.53-3.33,29.12,29.12,0,0,1,9.79-1.3,65.39,65.39,0,0,1,11.8,1.14l-.2,1.1a63.88,63.88,0,0,0-11.6-1.12c-4.59,0-7.56.54-9.08,1.12A2.36,2.36,0,0,0,433,413.4a1.83,1.83,0,0,0,1.61,1.94c1.47.43,4.25.56,9.36.56,4.27,0,8.12,0,10.24.56,1.81.45,2.9,1.48,2.9,3.31a3.48,3.48,0,0,1-2.14,3.49c-1.92.91-5.25,1.34-10.1,1.34A63.25,63.25,0,0,1,432,423.39l.2-1.14a65.89,65.89,0,0,0,12.65,1.23c4.15,0,7.31-.31,9.21-1.14a2.47,2.47,0,0,0,1.63-2.57c0-1.12-.52-2-2.24-2.33A58.25,58.25,0,0,0,444.37,417Z" transform="translate(-145.44 -341.21)"/><path class="cls-12" d="M303.07,383.29H306v2.28a14.52,14.52,0,0,1-.54,4.23H308V397c0,1.57.9,2.33,2.83,2.28H316c1.84,0,2.85-.7,3-2.1s.45-2.94.62-4.63c1.18.46,2.14.81,2.89,1.05-.19,1.28-.46,2.79-.8,4.52a4.1,4.1,0,0,1-1.59,2.9,8.23,8.23,0,0,1-4.23.79h-5q-5.82.15-5.86-4.73v-6.19q-3,8-16.49,12a22.39,22.39,0,0,0-1.77-2.82q16.46-4,16.24-14.47Zm-13.28-11.43a17.13,17.13,0,0,0-.68-2.64q14.61.07,30.34-1l.79,2.5Q305.32,371.54,289.79,371.86Zm1.6,7.27h2.82q-1.56-2.38-3.44-4.73l2.17-1.49c1.52,1.91,2.77,3.52,3.76,4.85l-1.95,1.37h16.67a44.2,44.2,0,0,0,4.81-7.37l2.6,1.33c-1.35,2.17-2.7,4.19-4.05,6H318V394h-3V381.67H294.35V394h-3Zm10.45-6.07,2.38-1.12q1.89,3.1,3,5.42l-2.6,1.27A56.26,56.26,0,0,0,301.84,373.06Z" transform="translate(-145.44 -341.21)"/><path class="cls-12" d="M337.59,374.22H340v11a33.32,33.32,0,0,1-.68,7l1.15-.83q3.18,4,5.72,7.48L344,400.36q-2.13-3.39-4.95-7.05a17.26,17.26,0,0,1-6.15,9.51,17,17,0,0,0-1.74-2.24q6.48-4.41,6.48-15.52Zm12.29,26a23.8,23.8,0,0,0,8.61-12.47H355.6a25.06,25.06,0,0,1-8.11,10.59c-.43-.5-1-1.13-1.77-1.88a20.48,20.48,0,0,0,7.34-8.71h-3a29.74,29.74,0,0,1-3.33,4.3c-.6-.58-1.23-1.13-1.88-1.66v1.34h-2.39V371.54h-7.3v20.29h-2.39V368.9h12.08v21.37a24,24,0,0,0,5.31-7.63l2.39.73c-.36.72-.72,1.42-1.08,2.09h14.43q-.3,6.84-.73,11.83c-.29,3-1.9,4.45-4.84,4.45q-1.31,0-3.69-.15a18.43,18.43,0,0,0-.44-2.78,28.5,28.5,0,0,0,4,.32,2.28,2.28,0,0,0,2.5-2.31q.44-3.94.61-9h-2.35q-2.54,9.44-9,14.28A16.88,16.88,0,0,0,349.88,400.25Zm-1.66-31.71h15.62v15h-2.53v-1.3H348.22Zm13.09,2.28H350.75v3.5h10.56ZM350.75,380h10.56v-3.51H350.75Z" transform="translate(-145.44 -341.21)"/><path class="cls-12" d="M375.6,392.62a40.44,40.44,0,0,0,6.22-12.33h-5.71v-2.57H382v-5.31c-1.86.19-3.61.36-5.25.5a17.63,17.63,0,0,0-.72-2.67q7-.51,13.92-1.59l.94,2.67q-3.26.44-6.18.76v5.64h5.75v2.57h-5.75v4.09l1.59-1.45c1.74,1.5,3.34,2.95,4.81,4.38l-2,2.06c-1.55-1.74-3-3.24-4.38-4.52v17.72H382V386.26A38.29,38.29,0,0,1,377,395.7C376.57,394.71,376.11,393.68,375.6,392.62Zm13.06-1.91,14.17-1.27V367.09h2.79v22.1l5.71-.54.22,2.6-5.93.54v10.78h-2.79V392L389,393.31Zm2.17-9.3,1.73-1.84c2.75,2.14,4.82,3.86,6.22,5.13l-1.88,2.21C395.77,385.73,393.74,383.9,390.83,381.41Zm2.13-8.68,1.66-1.81q4,3.07,6.51,5.39l-1.88,2.14A79.08,79.08,0,0,0,393,372.73Z" transform="translate(-145.44 -341.21)"/><path class="cls-12" d="M420.64,386q2.73-.78,5.28-1.54v-7.79h-4.81v-2.49h4.81v-7h2.79v7h4.23v2.49h-4.23v6.93l4.05-1.32c0,1.15,0,2.09.07,2.82l-4.12,1.32v11.66q0,3.84-3.62,3.87c-1,0-2.12,0-3.47,0-.15-1-.3-2-.47-3.07,1.42.14,2.49.21,3.22.21,1,0,1.55-.54,1.55-1.62V387.38L421,389Zm13.42-2.67V381h9.29v-5.53h-9.43v-2.64h9.43V367h2.9v5.83h9.83v2.64h-9.83V381H454v2.17a29.41,29.41,0,0,1-7.25,11.72,28.58,28.58,0,0,0,10.07,4.88c-.92,1.06-1.69,2-2.31,2.78a37.27,37.27,0,0,1-10-5.8,47.09,47.09,0,0,1-11.12,6.09,29.52,29.52,0,0,0-1.91-2.57,39,39,0,0,0,11-5.42,27.91,27.91,0,0,1-6-11.46Zm16.74,0H439.25a22.56,22.56,0,0,0,5.42,9.65A23.15,23.15,0,0,0,450.8,383.37Z" transform="translate(-145.44 -341.21)"/><rect class="cls-13" width="321.54" height="109.16"/></svg>